#!OML:ASF I:\golf\golf\golf 2\Subject 1\2002-09-07\Subject1.ASF
:FULLY-SPECIFIED
:DEGREES
1
root 0.607329 18.1678 -8.53926 9.68917 -4.41885 -1.72413
lowerback -6.24533 0.78333 -2.64607
upperback -0.282032 1.09556 4.14524
thorax 3.0831 0.481468 5.90711
lowerneck -15.3319 1.19946 0.755115
upperneck 42.1737 4.51273 -6.55415
head 18.8201 1.0226 -2.39244
rclavicle -1.98785e-015 3.49861e-014
rhumerus -28.9536 -5.37607 -79.2039
rradius 25.4805
rwrist -8.02755
rhand -18.0987 6.52533
rfingers 7.12502
rthumb 8.17506 -23.2965
lclavicle -1.98785e-015 3.49861e-014
lhumerus -31.0374 5.23235 84.9243
lradius 29.8777
lwrist 6.11861
lhand -4.94486 36.6555
lfingers 7.12502
lthumb 20.8464 65.5555
rfemur -15.308 1.09483 22.6442
rtibia 25.4797
rfoot -14.0317 -7.18594
rtoes 2.603
lfemur -13.0268 0.199065 -15.6179
ltibia 21.6417
lfoot -13.3597 0.632092
ltoes -10.1887
2
root 0.623011 18.166 -8.53793 9.78277 -4.44632 -1.79044
lowerback -6.27049 0.807364 -2.59868
upperback -0.359659 1.12629 4.13681
thorax 3.01391 0.500822 5.87257
lowerneck -15.3192 1.22296 0.825181
upperneck 42.2008 4.51193 -6.52028
head 18.8332 1.03851 -2.39024
rclavicle 1.30204e-014 -8.74653e-015
rhumerus -29.068 -5.47114 -79.2111
rradius 25.5638
rwrist -8.01762
rhand -18.1232 6.8093
rfingers 7.12502
rthumb 8.15142 -23.0135
lclavicle 1.30204e-014 -8.74653e-015
lhumerus -31.1692 5.31722 84.911
lradius 29.6857
lwrist 5.89583
lhand -4.78428 36.4092
lfingers 7.12502
lthumb 21.0007 65.2922
rfemur -15.3978 1.0459 22.6511
rtibia 25.4266
rfoot -14.0876 -7.07163
rtoes 3.05139
lfemur -13.1979 0.17879 -15.6004
ltibia 21.7993
lfoot -13.3906 0.745889
ltoes -11.4004
3
root 0.636786 18.166 -8.53797 9.86621 -4.47389 -1.78785
lowerback -6.17443 0.820208 -2.58527
upperback -0.483604 1.14603 4.08462
thorax 2.83027 0.518179 5.8059
lowerneck -15.3045 1.3498 1.13682
upperneck 42.1944 4.65386 -6.64214
head 18.85 1.13009 -2.47857
rclavicle 3.37934e-015 -1.19271e-014
rhumerus -29.182 -5.57925 -79.2575
rradius 25.5754
rwrist -8.00344
rhand -18.2368 7.2948
rfingers 7.12502
rthumb 8.04177 -22.5322
lclavicle 3.37934e-015 -1.19271e-014
lhumerus -31.3579 5.40372 84.834
lradius 29.5022
lwrist 5.62873
lhand -4.723 36.1302
lfingers 7.12502
lthumb 21.0595 65.0067
rfemur -15.507 1.01476 22.5902
rtibia 25.4173
rfoot -14.0546 -6.98785
rtoes 3.19543
lfemur -13.3046 0.0859075 -15.6375
ltibia 21.8563
lfoot -13.4307 0.735218
ltoes -9.55477
4
root 0.648264 18.1703 -8.53447 9.89832 -4.50413 -1.78426
lowerback -6.13838 0.782703 -2.6359
upperback -0.54659 1.10018 4.09067
thorax 2.74912 0.497834 5.83543
lowerneck -15.3042 1.32312 1.02181
upperneck 42.2125 4.65018 -6.63596
head 18.8581 1.10918 -2.45654
rclavicle -1.63003e-014 1.59028e-015
rhumerus -29.2048 -5.40147 -79.3425
rradius 25.585
rwrist -8.06128
rhand -18.3609 7.44702
rfingers 7.12502
rthumb 7.92199 -22.3845
lclavicle -1.63003e-014 1.59028e-015
lhumerus -31.5279 5.50807 84.8248
lradius 29.3669
lwrist 5.52363
lhand -4.95538 35.7759
lfingers 7.12502
lthumb 20.8363 64.677
rfemur -15.537 1.09651 22.5387
rtibia 25.427
rfoot -14.0067 -7.06376
rtoes 3.21839
lfemur -13.3071 -0.0611727 -15.6649
ltibia 21.8836
lfoot -13.5266 0.739455
ltoes -7.31149
5
root 0.660568 18.1721 -8.52709 9.8919 -4.5145 -1.66996
lowerback -6.26677 0.705143 -2.80827
upperback -0.495209 1.00847 4.0916
thorax 2.88248 0.445455 5.93245
lowerneck -15.323 1.29676 0.890937
upperneck 42.1338 4.65749 -6.65981
head 18.8127 1.08625 -2.43905
rclavicle 3.97569e-015 9.54166e-015
rhumerus -29.1014 -5.08 -79.4572
rradius 25.6255
rwrist -8.11351
rhand -18.5293 7.33034
rfingers 7.12502
rthumb 7.75949 -22.5073
lclavicle 3.97569e-015 9.54166e-015
lhumerus -31.5375 5.72028 84.839
lradius 29.2138
lwrist 5.31944
lhand -5.07687 35.883
lfingers 7.12502
lthumb 20.7195 64.797
rfemur -15.5255 1.10154 22.3725
rtibia 25.4637
rfoot -14.0399 -7.11806
rtoes 3.26643
lfemur -13.2498 -0.137729 -15.8189
ltibia 21.8699
lfoot -13.5747 0.741168
ltoes -7.57986
